<?xml version="1.0" encoding="UTF-8"?>
<svg xmlns="http://www.w3.org/2000/svg" xmlns:xlink="http://www.w3.org/1999/xlink" width="32px" height="32px" viewBox="0 0 32 32" version="1.1">
<g id="surface1">
<path style=" stroke:none;fill-rule:nonzero;fill:rgb(55.686277%,56.078434%,56.078434%);fill-opacity:1;" d="M 17.40625 4.425781 C 17.792969 4.425781 18.109375 4.761719 18.117188 5.183594 L 18.121094 5.203125 L 18.121094 14.109375 C 18.121094 14.53125 17.8125 14.878906 17.425781 14.886719 L 10.769531 14.886719 C 10.382812 14.890625 10.066406 14.550781 10.058594 14.128906 L 10.058594 5.203125 C 10.058594 4.78125 10.363281 4.4375 10.75 4.425781 Z M 17.40625 4.773438 L 10.769531 4.773438 C 10.554688 4.773438 10.382812 4.957031 10.375 5.1875 L 10.371094 5.203125 L 10.371094 14.109375 C 10.375 14.34375 10.542969 14.535156 10.753906 14.542969 L 17.40625 14.542969 C 17.621094 14.542969 17.796875 14.359375 17.804688 14.125 L 17.804688 5.203125 C 17.804688 4.964844 17.625 4.773438 17.40625 4.773438 M 11.714844 12.726562 L 11.714844 13.246094 L 11.242188 13.246094 L 11.242188 12.726562 Z M 17.011719 12.726562 L 17.011719 13.246094 L 11.953125 13.246094 L 11.953125 12.726562 Z M 11.714844 10.480469 L 11.714844 10.996094 L 11.242188 10.996094 L 11.242188 10.480469 Z M 17.011719 10.480469 L 17.011719 10.996094 L 11.953125 10.996094 L 11.953125 10.480469 Z M 11.714844 8.316406 L 11.714844 8.835938 L 11.242188 8.835938 L 11.242188 8.316406 Z M 17.011719 8.316406 L 17.011719 8.835938 L 11.953125 8.835938 L 11.953125 8.316406 Z M 17.011719 6.328125 L 17.011719 6.847656 L 11.242188 6.847656 L 11.242188 6.328125 Z M 17.40625 16.703125 L 17.40625 16.707031 C 17.792969 16.707031 18.105469 17.042969 18.117188 17.460938 L 18.121094 17.480469 L 18.121094 26.386719 C 18.121094 26.808594 17.8125 27.152344 17.425781 27.164062 L 10.769531 27.164062 C 10.382812 27.164062 10.070312 26.832031 10.058594 26.410156 L 10.058594 17.480469 C 10.058594 17.058594 10.363281 16.714844 10.75 16.703125 Z M 17.40625 17.050781 L 10.769531 17.050781 C 10.554688 17.050781 10.382812 17.234375 10.375 17.464844 L 10.371094 17.480469 L 10.371094 26.386719 C 10.375 26.621094 10.542969 26.8125 10.753906 26.820312 L 17.40625 26.820312 C 17.621094 26.820312 17.792969 26.636719 17.804688 26.40625 L 17.804688 17.484375 C 17.804688 17.25 17.632812 17.0625 17.421875 17.050781 Z M 11.714844 25.003906 L 11.714844 25.523438 L 11.242188 25.523438 L 11.242188 25.003906 Z M 17.011719 25.011719 L 17.011719 25.519531 L 11.953125 25.519531 L 11.953125 25.011719 Z M 11.714844 22.757812 L 11.714844 23.277344 L 11.242188 23.277344 L 11.242188 22.757812 Z M 17.011719 22.761719 L 17.011719 23.273438 L 11.953125 23.273438 L 11.953125 22.761719 Z M 11.714844 20.597656 L 11.714844 21.117188 L 11.242188 21.117188 L 11.242188 20.597656 Z M 17.011719 20.601562 L 17.011719 21.113281 L 11.953125 21.113281 L 11.953125 20.601562 Z M 17.011719 18.609375 L 17.011719 19.128906 L 11.242188 19.128906 L 11.242188 18.609375 Z M 19.324219 9.65625 L 19.324219 10.089844 L 21.695312 10.089844 L 21.695312 21.835938 L 19.324219 21.835938 L 19.324219 22.269531 L 22.089844 22.269531 L 22.089844 9.65625 Z M 19.324219 9.65625 "/>
<path style=" stroke:none;fill-rule:nonzero;fill:rgb(99.607843%,3.529412%,0.784314%);fill-opacity:1;" d="M 2.429688 2.03125 C 2.894531 1.191406 3.664062 0.703125 4.445312 0.421875 L 4.550781 0.382812 L 4.65625 0.347656 C 4.707031 0.332031 4.761719 0.316406 4.8125 0.300781 L 4.917969 0.269531 C 4.9375 0.265625 4.953125 0.261719 4.972656 0.257812 L 5.074219 0.230469 L 5.128906 0.21875 L 5.230469 0.195312 L 5.433594 0.15625 L 5.53125 0.136719 L 5.628906 0.121094 L 5.722656 0.109375 L 5.816406 0.09375 L 5.90625 0.0859375 L 5.996094 0.0742188 L 6.125 0.0625 L 6.246094 0.0507812 L 6.363281 0.046875 L 6.488281 0.0390625 L 6.605469 0.0351562 L 6.921875 0.0351562 L 7 0.0390625 L 7.035156 0.0429688 L 7.035156 2.117188 C 5.355469 1.941406 4.605469 2.496094 4.277344 3.085938 L 4.246094 3.144531 C 4.207031 3.222656 4.171875 3.304688 4.140625 3.390625 L 4.125 3.445312 C 4.121094 3.457031 4.117188 3.464844 4.113281 3.472656 L 4.101562 3.527344 L 4.085938 3.578125 L 4.074219 3.632812 C 4.074219 3.640625 4.070312 3.648438 4.070312 3.65625 L 4.058594 3.707031 L 4.054688 3.730469 L 4.046875 3.78125 L 4.042969 3.828125 L 4.035156 3.871094 L 4.03125 3.9375 L 4.027344 3.996094 L 4.023438 4.042969 L 4.023438 4.195312 L 4.027344 4.234375 L 4.03125 4.277344 L 4.03125 5.042969 L 4.027344 6.597656 L 4.023438 7.71875 L 4.015625 8.664062 L 4.011719 9.460938 L 4.003906 10.089844 L 3.996094 10.699219 L 3.988281 11.222656 L 3.980469 11.773438 L 3.972656 12.0625 L 3.96875 12.335938 L 3.957031 12.636719 L 3.957031 12.90625 L 3.953125 13.015625 L 3.953125 13.195312 L 3.945312 13.300781 L 3.945312 13.367188 L 3.941406 13.429688 L 3.933594 13.496094 L 3.925781 13.59375 L 3.921875 13.660156 L 3.914062 13.726562 L 3.902344 13.789062 L 3.898438 13.824219 L 3.886719 13.890625 L 3.882812 13.921875 L 3.871094 13.988281 L 3.855469 14.050781 L 3.839844 14.117188 C 3.835938 14.136719 3.828125 14.160156 3.824219 14.179688 L 3.804688 14.246094 L 3.785156 14.308594 L 3.765625 14.375 C 3.519531 15.0625 2.96875 15.671875 1.722656 15.957031 C 2.9375 16.230469 3.492188 16.816406 3.742188 17.480469 L 3.765625 17.542969 C 3.789062 17.605469 3.808594 17.671875 3.824219 17.738281 L 3.84375 17.800781 C 3.851562 17.84375 3.863281 17.886719 3.871094 17.933594 L 3.882812 17.996094 L 3.890625 18.03125 L 3.898438 18.09375 L 3.910156 18.160156 L 3.925781 18.292969 L 3.929688 18.359375 L 3.9375 18.421875 L 3.941406 18.488281 L 3.945312 18.585938 L 3.949219 18.648438 L 3.953125 18.757812 L 3.953125 18.902344 L 3.957031 19.007812 L 3.957031 19.179688 L 3.964844 19.484375 L 3.972656 19.804688 L 3.980469 20.148438 L 3.984375 20.515625 L 3.992188 20.960938 L 4 21.699219 L 4.007812 22.324219 L 4.011719 22.675781 L 4.019531 23.574219 L 4.023438 24.910156 L 4.03125 26.351562 L 4.03125 27.652344 L 4.027344 27.679688 L 4.027344 27.703125 L 4.023438 27.746094 L 4.023438 27.867188 L 4.027344 27.914062 L 4.03125 27.972656 L 4.035156 28.015625 L 4.042969 28.082031 L 4.046875 28.128906 L 4.0625 28.222656 L 4.070312 28.25 L 4.078125 28.300781 L 4.085938 28.324219 L 4.097656 28.378906 L 4.113281 28.429688 C 4.117188 28.4375 4.117188 28.449219 4.121094 28.457031 L 4.140625 28.511719 C 4.144531 28.527344 4.152344 28.546875 4.15625 28.5625 L 4.179688 28.617188 C 4.441406 29.265625 5.136719 29.964844 6.9375 29.804688 L 7.035156 29.792969 L 7.035156 31.871094 L 6.984375 31.871094 L 6.890625 31.875 L 6.582031 31.875 L 6.5 31.871094 L 6.398438 31.867188 L 6.25 31.859375 L 6.171875 31.851562 L 6.007812 31.835938 L 5.921875 31.828125 L 5.742188 31.804688 L 5.648438 31.792969 L 5.460938 31.761719 L 5.363281 31.742188 L 5.316406 31.734375 L 5.214844 31.710938 L 5.164062 31.703125 L 5.066406 31.679688 L 4.964844 31.652344 C 4.929688 31.644531 4.898438 31.636719 4.863281 31.625 L 4.761719 31.59375 C 3.820312 31.316406 2.832031 30.761719 2.324219 29.675781 C 2.433594 28.339844 2.9375 27.203125 3.835938 26.492188 C 3.878906 26.460938 3.921875 26.429688 3.964844 26.398438 L 4.015625 26.363281 C 3.953125 26.40625 3.894531 26.449219 3.835938 26.492188 C 2.9375 27.203125 2.433594 28.339844 2.324219 29.667969 C 2.097656 29.167969 1.980469 28.621094 1.976562 28.0625 L 1.964844 27.488281 L 1.949219 26.796875 L 1.933594 25.984375 L 1.90625 24.949219 L 1.882812 24.050781 L 1.851562 22.875 L 1.816406 21.617188 L 1.757812 19.636719 L 1.742188 19.175781 C 1.707031 18.136719 1.324219 17.628906 0.929688 17.386719 L 0.882812 17.359375 L 0.859375 17.347656 L 0.8125 17.320312 C 0.796875 17.3125 0.78125 17.304688 0.765625 17.300781 L 0.71875 17.28125 C 0.703125 17.273438 0.6875 17.265625 0.671875 17.261719 L 0.628906 17.246094 C 0.613281 17.242188 0.597656 17.234375 0.582031 17.230469 L 0.546875 17.222656 L 0.511719 17.210938 L 0.476562 17.203125 L 0.445312 17.195312 L 0.394531 17.1875 L 0.332031 17.179688 L 0.289062 17.171875 L 0.167969 17.171875 C 0.128906 17.171875 0.0859375 17.171875 0.0429688 17.171875 L 0 17.171875 L 0 14.738281 C 0.105469 14.742188 0.199219 14.742188 0.289062 14.738281 L 0.332031 14.730469 L 0.394531 14.722656 L 0.445312 14.710938 L 0.476562 14.703125 L 0.546875 14.6875 L 0.582031 14.675781 L 0.628906 14.664062 L 0.671875 14.648438 L 0.71875 14.628906 C 1.179688 14.441406 1.703125 13.953125 1.742188 12.730469 L 1.796875 10.972656 L 1.839844 9.535156 L 1.863281 8.71875 L 1.894531 7.410156 L 1.917969 6.5 L 1.933594 5.808594 L 1.957031 4.878906 L 1.96875 4.304688 L 1.976562 3.847656 C 1.992188 3.125 2.152344 2.539062 2.410156 2.066406 L 2.429688 2.035156 Z M 25.109375 2.082031 L 25.109375 0.0078125 L 25.160156 0.00390625 L 25.234375 0.00390625 L 25.277344 0 L 25.488281 0 L 25.59375 0.00390625 L 25.726562 0.0078125 L 25.796875 0.0117188 L 25.875 0.015625 L 25.988281 0.0273438 L 26.070312 0.03125 L 26.15625 0.0390625 L 26.328125 0.0625 L 26.417969 0.0742188 L 26.511719 0.0859375 L 26.699219 0.117188 L 26.75 0.128906 L 26.84375 0.144531 L 26.945312 0.167969 L 27.042969 0.191406 L 27.144531 0.214844 L 27.246094 0.242188 C 27.296875 0.253906 27.347656 0.269531 27.398438 0.285156 L 27.5 0.316406 C 28.457031 0.625 29.4375 1.222656 29.898438 2.378906 C 30.074219 2.832031 30.167969 3.320312 30.167969 3.8125 L 30.179688 4.382812 L 30.195312 5.078125 L 30.207031 5.542969 L 30.222656 6.238281 L 30.246094 7.152344 L 30.261719 7.824219 L 30.292969 8.996094 L 30.328125 10.257812 L 30.390625 12.238281 L 30.402344 12.695312 C 30.4375 13.753906 30.832031 14.261719 31.238281 14.5 L 31.285156 14.527344 L 31.355469 14.5625 L 31.398438 14.582031 C 31.40625 14.585938 31.414062 14.589844 31.421875 14.59375 L 31.492188 14.617188 L 31.535156 14.632812 L 31.558594 14.640625 L 31.625 14.660156 L 31.667969 14.671875 L 31.710938 14.679688 L 31.75 14.6875 L 31.8125 14.695312 L 31.859375 14.703125 C 31.9375 14.707031 32.015625 14.707031 32.101562 14.707031 L 32.144531 14.703125 L 32.144531 17.136719 C 32.050781 17.132812 31.953125 17.136719 31.859375 17.140625 L 31.796875 17.148438 L 31.703125 17.164062 L 31.632812 17.179688 L 31.597656 17.191406 L 31.5625 17.199219 L 31.542969 17.207031 L 31.472656 17.230469 L 31.425781 17.25 L 31.402344 17.257812 L 31.359375 17.28125 C 30.914062 17.488281 30.441406 17.984375 30.402344 19.148438 L 30.347656 20.90625 L 30.308594 22.34375 L 30.285156 23.15625 L 30.25 24.464844 L 30.226562 25.375 L 30.210938 26.070312 L 30.191406 26.996094 L 30.179688 27.574219 L 30.167969 28.03125 C 30.167969 28.460938 30.097656 28.882812 29.964844 29.285156 L 29.949219 29.332031 L 29.949219 29.335938 C 29.476562 30.675781 28.332031 31.304688 27.273438 31.59375 L 27.171875 31.625 L 27.117188 31.636719 L 26.863281 31.695312 L 26.8125 31.703125 L 26.714844 31.722656 L 26.667969 31.730469 L 26.570312 31.75 L 26.472656 31.761719 L 26.378906 31.777344 L 26.289062 31.789062 L 26.199219 31.796875 L 26.113281 31.808594 L 25.988281 31.820312 L 25.90625 31.824219 L 25.792969 31.832031 L 25.683594 31.835938 L 25.550781 31.84375 L 25.242188 31.84375 L 25.183594 31.839844 L 25.128906 31.839844 L 25.113281 31.835938 L 25.113281 29.761719 C 26.871094 29.945312 27.609375 29.328125 27.914062 28.707031 L 27.941406 28.652344 C 27.949219 28.632812 27.957031 28.613281 27.964844 28.597656 L 27.988281 28.539062 C 27.992188 28.523438 28 28.503906 28.007812 28.484375 L 28.023438 28.433594 L 28.0625 28.296875 L 28.074219 28.246094 L 28.082031 28.195312 L 28.09375 28.148438 L 28.101562 28.097656 L 28.105469 28.050781 L 28.113281 28.007812 L 28.117188 27.941406 L 28.121094 27.902344 L 28.125 27.835938 L 28.125 27.714844 L 28.121094 27.683594 L 28.121094 27.65625 L 28.117188 27.617188 L 28.117188 25.402344 L 28.125 24.308594 L 28.128906 23.386719 L 28.136719 22.445312 L 28.144531 21.601562 L 28.152344 21.109375 L 28.15625 20.714844 L 28.164062 20.261719 L 28.167969 19.972656 L 28.175781 19.699219 L 28.183594 19.445312 L 28.191406 19.144531 L 28.191406 18.792969 L 28.195312 18.722656 L 28.199219 18.613281 L 28.199219 18.539062 L 28.207031 18.40625 L 28.214844 18.34375 L 28.21875 18.277344 L 28.234375 18.144531 L 28.238281 18.109375 L 28.25 18.042969 L 28.261719 17.980469 L 28.285156 17.847656 C 28.300781 17.769531 28.320312 17.695312 28.34375 17.617188 L 28.363281 17.554688 C 28.394531 17.46875 28.425781 17.382812 28.464844 17.300781 L 28.496094 17.238281 C 28.78125 16.664062 29.339844 16.167969 30.421875 15.921875 C 29.054688 15.609375 28.527344 14.90625 28.320312 14.140625 L 28.304688 14.074219 C 28.292969 14.03125 28.285156 13.988281 28.273438 13.945312 L 28.261719 13.878906 L 28.257812 13.847656 L 28.246094 13.78125 L 28.238281 13.714844 L 28.230469 13.652344 L 28.214844 13.519531 L 28.210938 13.453125 L 28.207031 13.390625 L 28.199219 13.292969 L 28.199219 13.226562 L 28.195312 13.117188 L 28.191406 13.046875 L 28.191406 12.695312 L 28.183594 12.496094 L 28.179688 12.234375 L 28.171875 11.902344 L 28.164062 11.550781 L 28.15625 11.179688 L 28.152344 10.660156 L 28.140625 9.910156 L 28.136719 9.210938 L 28.128906 8.402344 L 28.121094 6.960938 L 28.117188 5.402344 C 28.222656 5.335938 28.328125 5.265625 28.429688 5.1875 C 28.933594 4.792969 29.3125 4.261719 29.566406 3.636719 L 29.582031 3.59375 C 29.328125 4.238281 28.945312 4.785156 28.429688 5.1875 C 28.34375 5.253906 28.257812 5.3125 28.167969 5.371094 L 28.113281 5.402344 L 28.113281 4.246094 L 28.117188 4.226562 L 28.117188 4.199219 L 28.121094 4.175781 L 28.121094 3.960938 L 28.117188 3.921875 L 28.113281 3.859375 L 28.105469 3.792969 L 28.097656 3.75 L 28.089844 3.699219 L 28.078125 3.628906 L 28.066406 3.578125 L 28.0625 3.550781 L 28.046875 3.5 L 28.03125 3.445312 C 28.03125 3.4375 28.027344 3.429688 28.023438 3.421875 L 28.007812 3.367188 C 28 3.347656 27.996094 3.332031 27.988281 3.3125 L 27.96875 3.257812 C 27.703125 2.613281 27.007812 1.914062 25.210938 2.074219 Z M 25.109375 2.082031 "/>
<path style=" stroke:none;fill-rule:nonzero;fill:rgb(100%,67.058825%,0%);fill-opacity:1;" d="M 3.914062 4.957031 C 3.933594 4.972656 3.953125 4.984375 3.972656 5 L 4.03125 5.042969 L 4.03125 4.261719 L 4.027344 4.234375 L 4.027344 4.207031 L 4.023438 4.164062 L 4.023438 4.042969 L 4.027344 3.996094 L 4.027344 3.957031 L 4.035156 3.871094 L 4.042969 3.828125 L 4.046875 3.78125 L 4.054688 3.730469 L 4.0625 3.683594 L 4.070312 3.65625 L 4.09375 3.554688 L 4.101562 3.527344 L 4.113281 3.472656 L 4.125 3.445312 L 4.140625 3.390625 C 4.167969 3.308594 4.203125 3.226562 4.246094 3.144531 L 4.277344 3.085938 C 4.605469 2.496094 5.355469 1.941406 7.035156 2.117188 L 7.035156 0.0429688 L 7 0.0390625 L 6.9375 0.0351562 L 6.566406 0.0351562 L 6.46875 0.0390625 L 6.363281 0.046875 L 6.246094 0.0546875 L 6.125 0.0625 L 6.039062 0.0703125 L 5.90625 0.0859375 L 5.816406 0.09375 L 5.722656 0.109375 L 5.628906 0.121094 L 5.53125 0.136719 L 5.433594 0.15625 L 5.230469 0.195312 L 5.128906 0.21875 L 5.074219 0.230469 L 4.972656 0.257812 C 4.953125 0.261719 4.9375 0.265625 4.917969 0.269531 L 4.8125 0.300781 C 4.761719 0.316406 4.707031 0.332031 4.65625 0.347656 L 4.550781 0.382812 L 4.445312 0.421875 C 3.664062 0.703125 2.894531 1.191406 2.429688 2.03125 C 2.578125 3.257812 3.074219 4.300781 3.914062 4.957031 M 7.035156 31.871094 L 7.035156 29.792969 C 5.199219 29.984375 4.476562 29.304688 4.195312 28.65625 L 4.171875 28.601562 C 4.160156 28.574219 4.152344 28.546875 4.140625 28.519531 L 4.101562 28.382812 L 4.085938 28.332031 L 4.074219 28.28125 L 4.066406 28.230469 L 4.054688 28.179688 L 4.046875 28.132812 L 4.042969 28.085938 L 4.035156 28.039062 L 4.027344 27.914062 L 4.023438 27.867188 L 4.023438 27.746094 L 4.027344 27.714844 L 4.027344 27.691406 L 4.03125 27.652344 L 4.03125 26.351562 C 3.964844 26.398438 3.902344 26.445312 3.835938 26.492188 C 2.9375 27.203125 2.433594 28.339844 2.324219 29.675781 C 2.832031 30.761719 3.820312 31.316406 4.761719 31.59375 L 4.863281 31.625 C 4.898438 31.636719 4.929688 31.644531 4.964844 31.652344 L 5.066406 31.679688 L 5.164062 31.703125 L 5.265625 31.722656 L 5.316406 31.734375 L 5.414062 31.753906 L 5.695312 31.800781 L 5.742188 31.804688 L 5.921875 31.828125 L 6.007812 31.835938 L 6.171875 31.851562 L 6.25 31.859375 L 6.324219 31.863281 L 6.433594 31.867188 L 6.5 31.871094 L 6.582031 31.875 L 6.953125 31.875 Z M 29.898438 2.378906 C 29.40625 1.148438 28.328125 0.550781 27.316406 0.261719 L 27.21875 0.234375 L 27.117188 0.207031 L 27.066406 0.195312 L 26.96875 0.171875 L 26.917969 0.160156 L 26.820312 0.140625 L 26.726562 0.121094 L 26.628906 0.105469 L 26.535156 0.0898438 L 26.265625 0.0546875 L 26.179688 0.0429688 L 26.097656 0.0351562 L 25.976562 0.0234375 L 25.859375 0.015625 L 25.75 0.0078125 L 25.648438 0.00390625 L 25.585938 0.00390625 L 25.507812 0 L 25.261719 0 L 25.195312 0.00390625 L 25.148438 0.00390625 L 25.109375 0.0078125 L 25.109375 2.082031 C 26.945312 1.890625 27.671875 2.574219 27.949219 3.21875 L 27.972656 3.277344 C 27.984375 3.304688 27.996094 3.332031 28.003906 3.359375 L 28.023438 3.414062 C 28.023438 3.421875 28.027344 3.429688 28.03125 3.441406 L 28.046875 3.492188 L 28.058594 3.546875 L 28.082031 3.648438 L 28.089844 3.699219 L 28.105469 3.792969 L 28.109375 3.835938 L 28.117188 3.902344 L 28.121094 3.960938 L 28.121094 4.160156 L 28.117188 4.199219 L 28.113281 4.246094 L 28.113281 5.402344 C 28.222656 5.335938 28.328125 5.265625 28.429688 5.1875 C 29.242188 4.550781 29.734375 3.550781 29.898438 2.378906 M 28.507812 26.722656 C 28.382812 26.628906 28.253906 26.539062 28.117188 26.460938 L 28.117188 27.617188 L 28.121094 27.644531 L 28.121094 27.667969 L 28.125 27.714844 L 28.125 27.835938 L 28.121094 27.902344 L 28.117188 27.941406 L 28.113281 28.007812 L 28.105469 28.050781 L 28.101562 28.097656 L 28.09375 28.148438 L 28.082031 28.195312 L 28.074219 28.246094 L 28.0625 28.296875 L 28.039062 28.378906 L 28.023438 28.429688 L 28.007812 28.484375 C 28 28.503906 27.992188 28.523438 27.988281 28.539062 L 27.964844 28.597656 C 27.957031 28.613281 27.949219 28.632812 27.941406 28.652344 L 27.914062 28.707031 C 27.609375 29.328125 26.871094 29.945312 25.113281 29.761719 L 25.113281 31.835938 L 25.140625 31.839844 L 25.222656 31.839844 L 25.320312 31.84375 L 25.484375 31.84375 L 25.558594 31.839844 L 25.644531 31.839844 L 25.746094 31.835938 L 25.851562 31.828125 L 25.929688 31.824219 L 26.046875 31.8125 L 26.132812 31.804688 L 26.214844 31.796875 L 26.304688 31.785156 L 26.390625 31.773438 L 26.484375 31.761719 L 26.574219 31.746094 L 26.671875 31.730469 C 26.6875 31.726562 26.703125 31.726562 26.71875 31.722656 L 26.8125 31.703125 L 26.910156 31.683594 L 26.960938 31.671875 L 27.058594 31.652344 L 27.109375 31.636719 L 27.210938 31.613281 C 28.285156 31.328125 29.464844 30.699219 29.949219 29.335938 C 29.757812 28.246094 29.277344 27.328125 28.507812 26.722656 "/>
</g>
</svg>
